<?xml version="1.0" encoding="UTF-8"?><svg id="_レイヤー_1" xmlns="http://www.w3.org/2000/svg" viewBox="0 0 283.5 283.5"><path d="m235.87,68.22h-38.02c-2.8,0-5.41-1.68-6.52-4.29l-12.49-27.96h-74.18l-13.23,29.64c-.75,1.49-2.05,2.42-3.73,2.42h-6.9v-8.39h-30.01v8.39h-10.25c-13.79,0-24.98,11.18-24.98,24.98v129.54c0,13.79,11.18,24.98,24.98,24.98h202.42c13.79,0,24.98-11.18,24.98-24.98v-122.08c.19-17.71-14.35-32.24-32.06-32.24h0Z" style="fill:none; stroke:#231815; stroke-miterlimit:10; stroke-width:10px;"/><circle cx="141.75" cy="157.87" r="45.48" style="fill:none; stroke:#000; stroke-miterlimit:10; stroke-width:10px;"/><path d="m214.63,96.92h25.16c1.3,0,2.42,1.12,2.42,2.42v8.95c0,1.3-1.12,2.42-2.42,2.42h-25.16c-1.3,0-2.42-1.12-2.42-2.42v-8.95c0-1.3,1.12-2.42,2.42-2.42Z" style="fill:none; stroke:#000; stroke-miterlimit:10; stroke-width:6px;"/></svg>