<?xml version="1.0" encoding="UTF-8"?><svg id="_レイヤー_1" xmlns="http://www.w3.org/2000/svg" viewBox="0 0 24 24"><path d="m17.54,10.49H6.46c-.88,0-1.58.81-1.58,1.81v6.32c0,1,.71,1.8,1.58,1.8h11.09c.88,0,1.58-.81,1.58-1.8v-6.32c0-1-.71-1.81-1.58-1.81h0Z" style="fill:none; stroke:#000; stroke-miterlimit:10; stroke-width:.75px;"/><path d="m7.48,10.49v-3.07c0-1.02.47-1.99,1.32-2.72.85-.72,2-1.13,3.19-1.13s2.34.4,3.19,1.13c.84.72,1.32,1.7,1.32,2.72v3.07" style="fill:none; stroke:#000; stroke-miterlimit:10; stroke-width:.75px;"/><path d="m13.05,14.87c0-.58-.47-1.05-1.05-1.05s-1.05.47-1.05,1.05c0,.45.28.83.68.98v1.47h.75v-1.47c.39-.15.67-.53.67-.98h0Z" style="stroke-width:0px;"/></svg>