<?xml version="1.0" encoding="UTF-8"?>
<svg id="_レイヤー_1" data-name="レイヤー 1" xmlns="http://www.w3.org/2000/svg" viewBox="0 0 595.28 595.28">
  <defs>
    <style>
      .cls-1 {
        fill: #92b6e0;
        stroke-width: 0px;
      }
    </style>
  </defs>
  <path class="cls-1" d="m416.93,59.04c-20.69-.05-41.18,4-60.29,11.91-19.11,7.92-36.47,19.54-51.06,34.21l-7.95,7.95-7.95-7.95c-22.02-22.02-50.08-37.02-80.63-43.1-30.55-6.08-62.21-2.96-90.99,8.96-28.78,11.92-53.37,32.1-70.67,58-17.3,25.9-26.54,56.34-26.54,87.49,0,172.6,252.46,310.51,263.2,316.31,4.17,2.25,8.84,3.42,13.58,3.42s9.4-1.18,13.58-3.42c10.74-5.8,263.2-143.71,263.2-316.31-.05-41.75-16.66-81.77-46.18-111.29-29.52-29.52-69.55-46.13-111.3-46.18Z"/>
</svg>