<?xml version="1.0" encoding="UTF-8"?>
<svg id="_レイヤー_1" data-name="レイヤー 1" xmlns="http://www.w3.org/2000/svg" viewBox="0 0 595.28 595.28">
  <defs>
    <style>
      .cls-1 {
        fill: #92b6e0;
        stroke-width: 0px;
      }
    </style>
  </defs>
  <path class="cls-1" d="m401.49,327.54c-10.46,10.46-20.1,21.14-28.84,31.81,3.28-22.15,5.09-46.11,5.09-71.16,0-112.08-80.19-202.93-80.19-202.93,0,0-80.19,90.86-80.19,202.93,0,25.03,1.81,48.98,5.08,71.12-8.69-10.59-18.26-21.19-28.65-31.57C125.33,259.29,20.87,252.78,20.87,252.78c0,0,6.51,104.47,74.96,172.92,57.68,57.68,121.72,90.58,156.63,83.33l-107.65-132.31,123.59,100.56c2.91,2.87,5.9,5.35,8.96,7.36l20.18-196.45,20.18,196.45c3.18-2.08,6.27-4.66,9.29-7.67l123.46-100.45-107.65,132.31c34.91,7.25,98.95-25.65,156.63-83.33,68.45-68.45,74.96-172.92,74.96-172.92,0,0-104.47,6.51-172.92,74.96Z"/>
</svg>