<?xml version="1.0" encoding="UTF-8"?><svg id="_レイヤー_1" xmlns="http://www.w3.org/2000/svg" viewBox="0 0 283.5 283.5"><path d="m27.9,52.05c0-7,5.7-12.7,12.7-12.7h55.6c12.1,0,23.7,4.8,32.2,13.3s13.3,20.1,13.3,32.2v159.3c0-9.1-3.6-17.7-10-24.1-6.4-6.4-15.1-10-24.1-10H40.6c-7,0-12.7-5.7-12.7-12.7,0,0,0-145.3,0-145.3Z" style="fill:none; stroke:#000; stroke-miterlimit:10; stroke-width:10px;"/><path d="m255.6,52.05c0-7-5.7-12.7-12.7-12.7h-55.6c-12.1,0-23.7,4.8-32.2,13.3s-13.3,20.1-13.3,32.2v159.3c0-9.1,3.6-17.7,10-24.1,6.4-6.4,15.1-10,24.1-10h67c7,0,12.7-5.7,12.7-12.7V52.05h0Z" style="fill:none; stroke:#000; stroke-miterlimit:10; stroke-width:10px;"/></svg>